<?xml version="1.0" standalone="no"?>
<!DOCTYPE svg PUBLIC "-//W3C//DTD SVG 20010904//EN"
 "http://www.w3.org/TR/2001/REC-SVG-20010904/DTD/svg10.dtd">
<svg version="1.0" xmlns="http://www.w3.org/2000/svg"
 width="938.000000pt" height="938.000000pt" viewBox="0 0 938.000000 938.000000"
 preserveAspectRatio="xMidYMid meet">
<metadata>
Created by potrace 1.11, written by Peter Selinger 2001-2013
</metadata>
<g transform="translate(0.000000,938.000000) scale(0.100000,-0.100000)"
fill="#000000" stroke="none">
<path d="M4556 9344 c-135 -30 -263 -89 -460 -213 l-129 -81 -61 19 c-282 92
-591 83 -823 -24 -212 -98 -390 -269 -538 -516 l-57 -97 -172 -5 c-199 -6
-283 -24 -414 -88 -63 -31 -102 -59 -161 -117 -162 -161 -204 -281 -219 -620
l-8 -159 -56 -69 c-145 -179 -165 -343 -68 -551 l29 -62 -118 -61 c-375 -194
-638 -528 -712 -905 -19 -98 -17 -301 4 -402 52 -245 178 -487 337 -643 l67
-65 6 -81 c13 -167 80 -314 207 -447 171 -180 407 -281 692 -294 203 -10 407
28 543 100 75 40 169 134 215 215 19 34 37 62 40 62 3 0 36 -71 72 -157 261
-619 445 -1276 522 -1863 28 -206 37 -331 45 -575 10 -343 6 -338 327 -465
257 -102 346 -143 468 -214 142 -84 228 -157 488 -414 236 -233 237 -235 285
-239 36 -3 56 1 81 17 53 33 62 68 62 247 0 481 83 1128 211 1638 149 593 382
1171 652 1615 l33 54 79 12 c77 11 81 11 95 -10 8 -11 39 -47 69 -79 77 -82
175 -129 279 -135 42 -2 95 1 117 7 39 11 40 11 69 -26 141 -181 301 -264 486
-251 140 10 297 118 404 278 l47 70 42 -7 c83 -15 287 -6 372 16 280 74 488
277 565 553 50 179 10 443 -96 623 l-24 42 70 47 c137 94 247 243 285 386 19
73 19 241 -1 338 -21 105 -66 213 -124 300 l-48 73 24 42 c82 142 84 327 6
470 -59 109 -184 201 -308 227 -44 9 -54 15 -50 28 25 84 33 307 16 427 -40
280 -188 560 -370 700 -164 126 -439 224 -702 250 l-67 6 -17 52 c-90 276
-296 433 -595 454 -109 7 -212 -14 -316 -67 l-75 -37 -50 32 c-106 70 -233 81
-343 31 l-54 -25 -49 94 c-151 286 -344 439 -654 521 -131 34 -361 43 -472 18z
m352 -199 c307 -65 517 -251 633 -559 12 -34 34 -67 56 -86 33 -30 41 -32 92
-28 44 3 67 12 109 41 94 64 150 60 246 -20 70 -57 113 -64 176 -29 177 98
246 117 369 99 124 -18 187 -47 257 -117 66 -67 106 -139 128 -236 28 -118 62
-141 238 -158 224 -23 438 -92 578 -187 128 -87 236 -252 296 -450 36 -122 45
-338 19 -465 -10 -47 -20 -111 -22 -143 -5 -56 -4 -59 35 -97 36 -37 44 -40
94 -40 124 0 226 -62 274 -165 44 -93 29 -186 -47 -294 -39 -55 -41 -63 -37
-109 4 -44 12 -58 62 -114 112 -123 169 -294 147 -438 -24 -158 -118 -288
-280 -383 -131 -78 -143 -136 -58 -282 68 -116 98 -211 104 -325 10 -178 -38
-303 -166 -431 -123 -123 -249 -170 -455 -170 -80 0 -133 6 -191 22 -111 29
-105 30 -125 -26 -64 -186 -193 -321 -317 -332 -154 -14 -258 66 -387 300
l-37 67 -45 -30 c-62 -44 -123 -70 -163 -70 -93 0 -173 55 -217 151 -45 96
-105 118 -217 79 -31 -11 -66 -20 -78 -20 -49 0 -104 27 -172 84 l-72 61 -120
0 c-109 0 -124 3 -165 25 -53 30 -98 98 -131 199 -44 132 -99 155 -246 104
-65 -23 -96 -27 -183 -28 -94 0 -111 3 -162 27 -103 48 -188 160 -222 294 -9
34 -16 67 -16 72 0 7 26 9 73 5 94 -6 200 16 297 63 104 51 228 176 288 292
38 71 47 82 70 82 56 0 216 40 275 68 176 83 331 269 373 447 23 101 14 241
-24 368 l-30 98 32 24 c48 36 154 83 216 95 59 11 121 6 184 -16 95 -34 145
-9 205 102 55 102 93 149 148 181 95 55 248 69 350 32 47 -18 75 -39 145 -109
86 -88 123 -109 167 -95 55 17 137 24 180 14 58 -13 78 -31 107 -95 25 -57 59
-84 105 -84 42 0 89 50 89 94 0 78 -104 221 -188 258 -59 26 -149 38 -219 29
l-57 -8 -58 51 c-75 66 -168 122 -238 144 -117 36 -318 14 -447 -50 -74 -36
-172 -134 -223 -222 -20 -37 -37 -55 -46 -52 -7 3 -46 8 -86 12 -79 7 -170 -6
-254 -36 l-52 -18 -6 59 c-13 111 -65 229 -134 302 -45 47 -94 51 -141 11 -47
-40 -43 -81 18 -171 82 -120 90 -238 27 -367 -14 -29 -26 -61 -26 -71 0 -10
19 -75 41 -144 36 -107 42 -139 43 -216 1 -84 -2 -95 -33 -160 -44 -89 -143
-191 -224 -229 -38 -18 -105 -35 -198 -50 -147 -25 -183 -40 -206 -87 -6 -13
-28 -59 -47 -101 -67 -141 -187 -236 -329 -260 -55 -9 -82 -8 -160 7 -54 10
-107 15 -123 11 -44 -11 -119 -24 -222 -38 -82 -11 -104 -10 -173 4 -124 26
-195 80 -259 196 -44 79 -95 94 -227 70 -80 -15 -178 0 -259 38 -124 59 -208
216 -229 429 -8 90 -21 123 -56 140 -54 29 -117 8 -139 -45 -25 -62 12 -290
68 -412 58 -126 168 -239 281 -290 l43 -20 -4 -72 c-9 -138 -87 -253 -196
-290 -25 -9 -78 -19 -117 -22 -89 -7 -127 -19 -153 -47 -12 -13 -58 -115 -103
-227 -94 -239 -135 -317 -198 -380 -95 -95 -203 -124 -456 -124 -155 0 -191 3
-260 22 -123 34 -234 94 -317 170 -130 121 -188 242 -188 393 0 103 -15 137
-83 187 -130 97 -249 285 -314 497 -25 83 -27 104 -27 260 -1 167 0 172 32
265 102 293 293 505 587 652 50 25 107 51 127 57 52 17 94 60 108 110 11 41
10 46 -47 159 -55 110 -58 120 -58 192 0 92 24 147 96 221 27 28 56 63 63 78
10 18 19 96 26 231 18 304 43 383 160 500 65 65 145 107 255 136 55 14 110 18
261 18 224 1 214 -3 271 111 92 183 252 374 393 466 223 147 506 178 795 88
118 -37 131 -34 285 66 337 218 510 265 768 210z m-1343 -3985 c20 -27 61 -71
91 -96 l54 -46 0 -112 c0 -145 -16 -421 -35 -616 -24 -240 -14 -234 -112 -64
-101 175 -179 300 -280 448 l-75 108 40 42 c23 22 54 68 71 101 29 60 61 187
61 244 0 30 1 30 63 34 34 2 67 4 74 5 6 1 28 -20 48 -48z m725 -297 c17 -91
62 -206 105 -271 l36 -53 34 -322 c54 -514 65 -657 71 -917 3 -135 7 -259 10
-276 8 -57 70 -96 157 -99 4 0 25 44 47 98 80 199 346 720 502 984 48 81 49
83 71 68 54 -35 142 -57 239 -58 83 -2 100 -5 120 -23 13 -12 35 -29 50 -38
l27 -18 -38 -61 c-431 -707 -735 -1683 -836 -2682 -15 -156 -35 -440 -35 -509
l0 -40 -147 145 c-225 221 -318 296 -480 388 -132 75 -435 203 -618 261 -65
21 -65 20 -65 155 0 704 -190 1585 -518 2405 -56 139 -159 374 -197 451 l-25
49 28 67 28 67 70 13 c38 7 79 15 92 18 20 5 35 -14 136 -167 215 -328 370
-604 437 -782 42 -111 65 -130 152 -123 32 3 61 7 64 10 2 3 11 70 19 149 7
78 20 193 29 253 24 178 54 534 61 729 l7 181 126 -3 c69 -2 146 1 171 6 25 6
48 10 51 11 4 1 12 -29 19 -66z m560 -500 c106 -5 195 6 261 32 12 4 21 -7 37
-49 l21 -55 -69 -115 c-65 -109 -271 -487 -338 -621 l-30 -60 -6 65 c-3 36
-15 180 -26 320 -12 140 -27 311 -35 380 -8 69 -15 128 -15 132 0 4 19 0 43
-9 25 -9 88 -17 157 -20z"/>
<path d="M4295 8092 c-41 -14 -53 -24 -69 -55 -16 -34 -17 -42 -4 -75 20 -54
70 -77 133 -61 62 16 161 7 212 -19 23 -12 60 -44 84 -71 52 -63 91 -77 161
-61 93 23 201 -3 255 -62 28 -30 60 -101 68 -153 12 -78 16 -86 48 -105 47
-29 93 -26 128 9 34 34 37 74 14 164 -57 218 -244 364 -456 355 l-75 -3 -50
41 c-58 49 -121 82 -189 100 -70 19 -199 17 -260 -4z"/>
<path d="M6571 7874 c-36 -7 -97 -29 -138 -48 -58 -28 -76 -42 -89 -70 -15
-31 -16 -39 -3 -73 9 -23 27 -45 48 -57 37 -21 45 -20 161 30 56 25 78 28 165
29 82 0 108 -4 146 -21 108 -50 179 -163 203 -322 7 -50 21 -103 30 -117 25
-37 74 -55 154 -55 55 0 75 -4 96 -21 24 -19 26 -27 26 -90 0 -65 2 -73 30
-101 28 -28 36 -30 78 -25 62 7 88 37 97 114 11 103 -16 185 -84 246 -41 37
-146 77 -201 77 -26 0 -29 4 -44 72 -61 271 -279 450 -544 447 -37 0 -96 -7
-131 -15z"/>
<path d="M7367 5936 c-50 -18 -64 -31 -77 -71 -25 -77 47 -148 128 -125 42 11
102 13 127 4 18 -7 49 -65 59 -109 9 -41 46 -80 106 -110 108 -55 170 -143
170 -242 0 -71 -24 -116 -100 -186 -33 -31 -66 -70 -71 -87 -22 -62 27 -130
93 -130 58 0 184 119 236 222 63 124 64 223 5 347 -40 84 -150 204 -220 239
-33 17 -45 31 -59 68 -25 65 -86 140 -137 166 -53 28 -201 36 -260 14z"/>
<path d="M4864 2644 c-44 -21 -56 -49 -114 -249 -89 -313 -147 -637 -171 -969
-21 -294 -8 -341 91 -341 72 0 93 24 97 112 24 488 77 810 203 1230 38 126 40
134 26 168 -11 24 -26 40 -50 50 -43 18 -44 18 -82 -1z"/>
<path d="M3956 51 c-4 -7 -5 -15 -2 -18 9 -9 19 4 14 18 -4 11 -6 11 -12 0z"/>
<path d="M4040 56 c0 -3 5 -17 12 -31 8 -18 14 -22 20 -13 4 7 7 20 7 28 0 10
-3 8 -9 -5 -7 -16 -9 -17 -9 -3 -1 15 -21 38 -21 24z"/>
<path d="M4101 44 c0 -11 3 -14 6 -6 3 7 2 16 -1 19 -3 4 -6 -2 -5 -13z"/>
<path d="M4136 40 c3 -14 10 -29 15 -35 14 -15 10 7 -7 35 l-15 25 7 -25z"/>
<path d="M4161 44 c0 -11 3 -14 6 -6 3 7 2 16 -1 19 -3 4 -6 -2 -5 -13z"/>
<path d="M4224 30 c1 -24 36 -44 36 -21 0 6 -6 8 -14 5 -10 -4 -16 3 -19 18
-4 22 -4 21 -3 -2z"/>
<path d="M4338 53 c6 -2 18 -2 25 0 6 3 1 5 -13 5 -14 0 -19 -2 -12 -5z"/>
<path d="M4391 28 c2 -30 2 -31 6 -5 2 15 9 27 15 27 5 0 8 -6 5 -14 -3 -8 2
-20 11 -28 13 -11 14 -11 7 2 -5 8 -10 22 -10 30 0 8 -8 16 -17 18 -15 3 -18
-3 -17 -30z"/>
<path d="M4481 40 c14 -31 19 -36 19 -24 0 6 -7 19 -16 30 -14 18 -14 18 -3
-6z"/>
<path d="M4526 51 c-4 -5 3 -7 14 -4 23 6 26 13 6 13 -8 0 -17 -4 -20 -9z"/>
<path d="M4590 56 c0 -2 9 -6 20 -9 11 -3 18 -1 14 4 -5 9 -34 13 -34 5z"/>
<path d="M4716 51 c-3 -5 3 -7 14 -4 16 4 20 0 20 -17 0 -18 -4 -21 -21 -17
-16 4 -19 3 -11 -5 17 -17 44 -1 40 24 -3 24 -32 36 -42 19z"/>
<path d="M4781 28 c2 -30 2 -31 6 -5 2 15 9 27 15 27 5 0 8 -6 5 -14 -3 -8 2
-20 11 -28 13 -11 14 -11 7 2 -5 8 -10 22 -10 30 0 8 -8 16 -17 18 -15 3 -18
-3 -17 -30z"/>
<path d="M4845 30 c0 -17 3 -30 8 -30 4 0 7 13 7 30 0 17 -3 30 -7 30 -5 0 -8
-13 -8 -30z"/>
<path d="M4890 50 c0 -5 5 -10 11 -10 5 0 7 5 4 10 -3 6 -8 10 -11 10 -2 0 -4
-4 -4 -10z"/>
<path d="M4966 51 c-4 -5 3 -7 14 -4 23 6 26 13 6 13 -8 0 -17 -4 -20 -9z"/>
<path d="M5038 53 c7 -3 16 -2 19 1 4 3 -2 6 -13 5 -11 0 -14 -3 -6 -6z"/>
<path d="M5090 39 c-7 -11 -10 -23 -7 -25 2 -2 9 7 15 21 14 30 7 33 -8 4z"/>
<path d="M5156 51 c-4 -5 3 -7 14 -4 23 6 26 13 6 13 -8 0 -17 -4 -20 -9z"/>
<path d="M5228 53 c7 -3 16 -2 19 1 4 3 -2 6 -13 5 -11 0 -14 -3 -6 -6z"/>
<path d="M5288 53 c6 -2 18 -2 25 0 6 3 1 5 -13 5 -14 0 -19 -2 -12 -5z"/>
<path d="M5386 51 c-4 -5 3 -7 14 -4 23 6 26 13 6 13 -8 0 -17 -4 -20 -9z"/>
<path d="M5444 45 c-13 -32 23 -63 40 -36 4 5 -3 7 -14 4 -16 -4 -20 0 -20 17
0 17 4 21 20 17 11 -3 18 -1 14 4 -8 14 -34 11 -40 -6z"/>
<path d="M5510 28 c0 -36 4 -35 14 5 4 16 2 27 -4 27 -5 0 -10 -14 -10 -32z"/>
<path d="M5541 37 c-13 -21 -12 -21 5 -5 10 10 16 20 13 22 -3 3 -11 -5 -18
-17z"/>
<path d="M3930 28 c0 -9 5 -20 10 -23 13 -8 13 5 0 25 -8 13 -10 13 -10 -2z"/>
<path d="M3976 24 c-4 -9 -4 -19 -1 -22 2 -3 7 3 11 12 4 9 4 19 1 22 -2 3 -7
-3 -11 -12z"/>
<path d="M4457 21 c-4 -17 -3 -21 5 -13 5 5 8 16 6 23 -3 8 -7 3 -11 -10z"/>
<path d="M5110 26 c0 -8 4 -17 9 -20 5 -4 7 3 4 14 -6 23 -13 26 -13 6z"/>
<path d="M5228 33 c7 -3 16 -2 19 1 4 3 -2 6 -13 5 -11 0 -14 -3 -6 -6z"/>
<path d="M4020 16 c0 -9 5 -16 10 -16 6 0 10 4 10 9 0 6 -4 13 -10 16 -5 3
-10 -1 -10 -9z"/>
<path d="M4117 23 c-4 -3 -7 -11 -7 -17 0 -6 5 -5 12 2 6 6 9 14 7 17 -3 3 -9
2 -12 -2z"/>
<path d="M4916 17 c3 -10 9 -15 12 -12 3 3 0 11 -7 18 -10 9 -11 8 -5 -6z"/>
<path d="M4996 18 c5 -8 0 -9 -16 -5 -16 4 -20 3 -12 -5 6 -6 18 -8 26 -5 18
7 22 27 5 27 -5 0 -7 -5 -3 -12z"/>
<path d="M5186 18 c5 -8 0 -9 -16 -5 -16 4 -20 3 -12 -5 6 -6 18 -8 26 -5 18
7 22 27 5 27 -5 0 -7 -5 -3 -12z"/>
<path d="M5305 21 c3 -5 -2 -12 -10 -14 -12 -4 -12 -5 1 -3 19 1 32 26 14 26
-6 0 -9 -4 -5 -9z"/>
<path d="M4528 8 c5 -5 16 -8 23 -6 8 3 3 7 -10 11 -17 4 -21 3 -13 -5z"/>
<path d="M4605 10 c-16 -7 -17 -9 -3 -9 9 -1 20 4 23 9 7 11 7 11 -20 0z"/>
<path d="M5388 8 c5 -5 16 -8 23 -6 8 3 3 7 -10 11 -17 4 -21 3 -13 -5z"/>
<path d="M4298 3 c7 -3 16 -2 19 1 4 3 -2 6 -13 5 -11 0 -14 -3 -6 -6z"/>
<path d="M4668 3 c7 -3 16 -2 19 1 4 3 -2 6 -13 5 -11 0 -14 -3 -6 -6z"/>
<path d="M5228 3 c7 -3 16 -2 19 1 4 3 -2 6 -13 5 -11 0 -14 -3 -6 -6z"/>
</g>
</svg>
